<svg width="16" height="16" viewBox="0 0 16 16" fill="none" xmlns="http://www.w3.org/2000/svg">
<path d="M1.33331 3.06667C1.33331 2.6933 1.33331 2.50661 1.40598 2.36401C1.46989 2.23856 1.57188 2.13658 1.69732 2.07266C1.83993 2 2.02661 2 2.39998 2H13.6C13.9733 2 14.16 2 14.3026 2.07266C14.4281 2.13658 14.5301 2.23856 14.594 2.36401C14.6666 2.50661 14.6666 2.6933 14.6666 3.06667V3.51293C14.6666 3.69213 14.6666 3.78173 14.6447 3.86504C14.6253 3.93887 14.5934 4.00882 14.5503 4.07184C14.5017 4.14295 14.434 4.20164 14.2986 4.319L10.0347 8.01434C9.8993 8.1317 9.83159 8.19038 9.78297 8.26149C9.73989 8.32451 9.70795 8.39446 9.68854 8.46829C9.66665 8.55161 9.66665 8.64121 9.66665 8.8204V12.3056C9.66665 12.436 9.66665 12.5011 9.64562 12.5575C9.62704 12.6073 9.59682 12.6519 9.55748 12.6877C9.51296 12.7281 9.45244 12.7524 9.33139 12.8008L7.06472 13.7074C6.81969 13.8054 6.69718 13.8545 6.59883 13.834C6.51282 13.8161 6.43735 13.765 6.38881 13.6918C6.33331 13.6081 6.33331 13.4762 6.33331 13.2122V8.8204C6.33331 8.64121 6.33331 8.55161 6.31142 8.46829C6.29201 8.39446 6.26007 8.32451 6.21699 8.26149C6.16837 8.19038 6.10066 8.1317 5.96524 8.01434L1.70139 4.319C1.56597 4.20164 1.49826 4.14295 1.44964 4.07184C1.40656 4.00882 1.37461 3.93887 1.35521 3.86504C1.33331 3.78173 1.33331 3.69213 1.33331 3.51293V3.06667Z" stroke="#6C7480" stroke-width="2" stroke-linecap="round" stroke-linejoin="round"/>
</svg>
