<svg width="25" height="24" viewBox="0 0 25 24" fill="none" xmlns="http://www.w3.org/2000/svg">
<g clip-path="url(#clip0_0_306)">
<path fill-rule="evenodd" clip-rule="evenodd" d="M15.5 19C15.5002 19.5046 15.3096 19.9906 14.9665 20.3605C14.6234 20.7305 14.1532 20.9572 13.65 20.995L13.5 21H11.5C10.9954 21.0002 10.5094 20.8096 10.1395 20.4665C9.76947 20.1234 9.54284 19.6532 9.505 19.15L9.5 19H15.5ZM12.5 2C14.315 1.99997 16.059 2.70489 17.3642 3.96607C18.6694 5.22726 19.4338 6.94609 19.496 8.76L19.5 9V12.764L21.322 16.408C21.4015 16.567 21.4413 16.7429 21.438 16.9206C21.4346 17.0984 21.3883 17.2727 21.3029 17.4286C21.2174 17.5845 21.0955 17.7174 20.9475 17.8158C20.7995 17.9143 20.6298 17.9754 20.453 17.994L20.338 18H4.662C4.48417 18.0001 4.30897 17.957 4.15142 17.8745C3.99388 17.792 3.85868 17.6725 3.75742 17.5264C3.65616 17.3802 3.59185 17.2116 3.57001 17.0351C3.54816 16.8586 3.56944 16.6795 3.632 16.513L3.678 16.408L5.5 12.764V9C5.5 7.14348 6.2375 5.36301 7.55025 4.05025C8.86301 2.7375 10.6435 2 12.5 2ZM12.5 4C11.2115 4.00007 9.97284 4.49754 9.04222 5.38866C8.11161 6.27978 7.56092 7.49575 7.505 8.783L7.5 9V12.764C7.50001 13.012 7.45389 13.2579 7.364 13.489L7.289 13.659L6.119 16H18.882L17.712 13.658C17.601 13.4363 17.5322 13.1959 17.509 12.949L17.5 12.764V9C17.5 7.67392 16.9732 6.40215 16.0355 5.46447C15.0979 4.52678 13.8261 4 12.5 4Z" fill="#333333"/>
</g>
<defs>
<clipPath id="clip0_0_306">
<rect width="24" height="24" fill="white" transform="translate(0.5)"/>
</clipPath>
</defs>
</svg>
