<svg width="33" height="33" viewBox="0 0 33 33" fill="none" xmlns="http://www.w3.org/2000/svg">
<g id="image-03">
<path id="Icon" d="M5.88451 28.4327L14.9032 19.414C15.4446 18.8726 15.7154 18.6018 16.0275 18.5004C16.3021 18.4112 16.5979 18.4112 16.8725 18.5004C17.1847 18.6018 17.4554 18.8726 17.9968 19.414L26.9554 28.3725M19.1844 20.6016L23.1063 16.6796C23.6478 16.1382 23.9185 15.8675 24.2307 15.766C24.5052 15.6768 24.801 15.6768 25.0756 15.766C25.3878 15.8675 25.6585 16.1382 26.1999 16.6796L30.1219 20.6016M13.7156 12.3984C13.7156 13.9086 12.4914 15.1328 10.9813 15.1328C9.47111 15.1328 8.24689 13.9086 8.24689 12.3984C8.24689 10.8883 9.47111 9.66406 10.9813 9.66406C12.4914 9.66406 13.7156 10.8883 13.7156 12.3984ZM9.34064 28.8047H23.5594C25.8565 28.8047 27.005 28.8047 27.8824 28.3576C28.6542 27.9644 29.2816 27.337 29.6748 26.5652C30.1219 25.6878 30.1219 24.5393 30.1219 22.2422V10.7578C30.1219 8.46072 30.1219 7.31218 29.6748 6.4348C29.2816 5.66305 28.6542 5.03559 27.8824 4.64236C27.005 4.19531 25.8565 4.19531 23.5594 4.19531H9.34064C7.04355 4.19531 5.895 4.19531 5.01763 4.64236C4.24587 5.03559 3.61841 5.66305 3.22518 6.4348C2.77814 7.31218 2.77814 8.46072 2.77814 10.7578V22.2422C2.77814 24.5393 2.77814 25.6878 3.22518 26.5652C3.61841 27.337 4.24587 27.9644 5.01763 28.3576C5.895 28.8047 7.04355 28.8047 9.34064 28.8047Z" stroke="#A4AAB2" stroke-width="2.73438" stroke-linecap="round" stroke-linejoin="round"/>
</g>
</svg>
