<svg width="21" height="20" viewBox="0 0 21 20" fill="none" xmlns="http://www.w3.org/2000/svg">
<path fill-rule="evenodd" clip-rule="evenodd" d="M13.9467 12.5708L17.23 15.9125C17.3771 16.0715 17.4565 16.2815 17.4514 16.498C17.4463 16.7145 17.3571 16.9206 17.2027 17.0725C17.0484 17.2244 16.8409 17.3102 16.6243 17.3117C16.4077 17.3133 16.1991 17.2305 16.0425 17.0808L12.7608 13.7425C11.4946 14.6964 9.91324 15.1334 8.33689 14.9652C6.76055 14.7969 5.30704 14.036 4.27068 12.8363C3.23431 11.6367 2.69254 10.0881 2.75507 8.50399C2.81759 6.91993 3.47973 5.41881 4.60742 4.3046C5.73511 3.19038 7.24408 2.54632 8.82878 2.50284C10.4135 2.45936 11.9555 3.0197 13.1426 4.07041C14.3297 5.12111 15.0731 6.58366 15.2224 8.16192C15.3717 9.74017 14.9157 11.3162 13.9467 12.5708ZM8.99999 13.3333C10.2156 13.3333 11.3814 12.8505 12.2409 11.9909C13.1004 11.1314 13.5833 9.96558 13.5833 8.75C13.5833 7.53443 13.1004 6.36864 12.2409 5.5091C11.3814 4.64956 10.2156 4.16667 8.99999 4.16667C7.78442 4.16667 6.61863 4.64956 5.75909 5.5091C4.89955 6.36864 4.41666 7.53443 4.41666 8.75C4.41666 9.96558 4.89955 11.1314 5.75909 11.9909C6.61863 12.8505 7.78442 13.3333 8.99999 13.3333Z" fill="#626F86"/>
</svg>
