<svg width="25" height="24" viewBox="0 0 25 24" fill="none" xmlns="http://www.w3.org/2000/svg">
<path d="M9.8951 19.3711L10.4795 20.6856C10.6533 21.0768 10.9368 21.4093 11.2958 21.6426C11.6547 21.8759 12.0737 22.0001 12.5018 22C12.9299 22.0001 13.3488 21.8759 13.7078 21.6426C14.0667 21.4093 14.3503 21.0768 14.524 20.6856L15.1084 19.3711C15.3165 18.9047 15.6664 18.5159 16.1084 18.26C16.5532 18.0034 17.0678 17.8941 17.5784 17.9478L19.0084 18.1C19.4341 18.145 19.8637 18.0656 20.2451 17.8713C20.6265 17.6771 20.9434 17.3763 21.1573 17.0056C21.3715 16.635 21.4735 16.2103 21.4511 15.7829C21.4286 15.3555 21.2825 14.9438 21.0307 14.5978L20.184 13.4344C19.8825 13.0171 19.7214 12.5148 19.724 12C19.7239 11.4866 19.8865 10.9864 20.1884 10.5711L21.0351 9.40778C21.287 9.06175 21.433 8.65007 21.4555 8.22267C21.478 7.79528 21.3759 7.37054 21.1618 7C20.9479 6.62923 20.631 6.32849 20.2496 6.13423C19.8681 5.93997 19.4386 5.86053 19.0129 5.90556L17.5829 6.05778C17.0722 6.11141 16.5577 6.00212 16.1129 5.74556C15.67 5.48825 15.32 5.09736 15.1129 4.62889L14.524 3.31444C14.3503 2.92317 14.0667 2.59072 13.7078 2.3574C13.3488 2.12408 12.9299 1.99993 12.5018 2C12.0737 1.99993 11.6547 2.12408 11.2958 2.3574C10.9368 2.59072 10.6533 2.92317 10.4795 3.31444L9.8951 4.62889C9.68803 5.09736 9.33798 5.48825 8.8951 5.74556C8.45032 6.00212 7.93577 6.11141 7.4251 6.05778L5.99066 5.90556C5.56499 5.86053 5.1354 5.93997 4.75397 6.13423C4.37255 6.32849 4.05567 6.62923 3.84177 7C3.62759 7.37054 3.52555 7.79528 3.54804 8.22267C3.57052 8.65007 3.71656 9.06175 3.96844 9.40778L4.8151 10.5711C5.11704 10.9864 5.27964 11.4866 5.27955 12C5.27964 12.5134 5.11704 13.0137 4.8151 13.4289L3.96844 14.5922C3.71656 14.9382 3.57052 15.3499 3.54804 15.7773C3.52555 16.2047 3.62759 16.6295 3.84177 17C4.05589 17.3706 4.3728 17.6712 4.75417 17.8654C5.13554 18.0596 5.56502 18.1392 5.99066 18.0944L7.42066 17.9422C7.93133 17.8886 8.44587 17.9979 8.89066 18.2544C9.33519 18.511 9.68687 18.902 9.8951 19.3711Z" stroke="#333333" stroke-width="2" stroke-linecap="round" stroke-linejoin="round"/>
<path d="M12.5 15C14.1568 15 15.5 13.6569 15.5 12C15.5 10.3431 14.1568 9 12.5 9C10.8431 9 9.49998 10.3431 9.49998 12C9.49998 13.6569 10.8431 15 12.5 15Z" stroke="#333333" stroke-width="2" stroke-linecap="round" stroke-linejoin="round"/>
</svg>
